PathFileType	4	(X/Y/Z)	RBDS020\RBDS020runT35.trc
DataRate	CameraRate	NumFrames	NumMarkers	Units	OrigDataRate	OrigDataStartFrame	OrigNumFrames
150.000000	150.000000	4	33	mm	150.000000	562	4500
Frame#	Time	L.ASIS			L.Heel.Bottom			L.Heel.Lateral			L.Heel.Top			L.Iliac.Crest			L.MT1			L.MT5			L.PSIS			L.Shank.Bottom.Lateral			L.Shank.Bottom.Medial			L.Shank.Top.Lateral			L.Shank.Top.Medial			L.Thigh.Bottom.Lateral			L.Thigh.Bottom.Medial			L.Thigh.Top.Lateral			L.Thigh.Top.Medial			R.ASIS			R.ASY			R.Heel.Bottom			R.Heel.Lateral			R.Heel.Top			R.Iliac.Crest			R.MT1			R.MT5			R.PSIS			R.Shank.Bottom.Lateral			R.Shank.Bottom.Medial			R.Shank.Top.Lateral			R.Shank.Top.Medial			R.Thigh.Bottom.Lateral			R.Thigh.Bottom.Medial			R.Thigh.Top.Lateral			R.Thigh.Top.Medial			
		X1	Y1	Z1	X2	Y2	Z2	X3	Y3	Z3	X4	Y4	Z4	X5	Y5	Z5	X6	Y6	Z6	X7	Y7	Z7	X8	Y8	Z8	X9	Y9	Z9	X10	Y10	Z10	X11	Y11	Z11	X12	Y12	Z12	X13	Y13	Z13	X14	Y14	Z14	X15	Y15	Z15	X16	Y16	Z16	X17	Y17	Z17	X18	Y18	Z18	X19	Y19	Z19	X20	Y20	Z20	X21	Y21	Z21	X22	Y22	Z22	X23	Y23	Z23	X24	Y24	Z24	X25	Y25	Z25	X26	Y26	Z26	X27	Y27	Z27	X28	Y28	Z28	X29	Y29	Z29	X30	Y30	Z30	X31	Y31	Z31	X32	Y32	Z32	X33	Y33	Z33	

563	3.746666666666667	2353.022154659075	1037.4654649788	896.6911217724064	2226.974780828816	131.1188698929855	956.8965211088237	2252.27697334985	146.0300842029206	911.1048142271885	2251.278982034225	173.0542740340337	955.9589214909919	2295.056931325744	1085.096468400829	852.08548703945	2441.053334466313	71.37867219930752	961.2405595624831	2392.557102844154	78.04715129436391	862.1598307452064	2198.122979426898	1069.637399845726	947.3678010314934	2343.639638564543	241.9662340932987	884.0079189186539	2307.878266468028	259.6939523002722	922.9688845692834	2363.556846724871	318.7568986732932	868.8201292147403	2330.511180498519	336.3859532035775	907.4845823856482	2419.472249888426	717.7169794871697	829.5877693244748	2361.740207816153	682.0056293906749	856.1517720634355	2358.234402620316	807.5955667631989	817.5801638843865	2302.934170443815	773.8398916179751	843.4248532506175	2351.826462429354	1006.829430778962	1120.460645455896	1964.560590534789	94.56978403310082	1072.257520270327	1782.362342398937	157.9406450632074	1051.112328009019	1808.636159256628	153.2491057375374	1097.721078417127	1812.027939655728	188.0898071097505	1055.956871959281	2315.956175192724	1061.028794669033	1142.744770552946	1962.90143497707	54.60178719295135	1022.529371498619	1929.217764726053	54.82657926490181	1128.88589813871	2199.207525328713	1066.476643820002	1044.134720806666	1930.807990312178	253.7912172634945	1121.078118615421	1898.817568880116	280.3024830722601	1090.7633153829	1975.293302905066	325.445714506291	1135.579712927407	1937.858980605201	350.0156829621915	1105.949254059493	2148.864048194167	666.1524118362362	1149.352973598141	2099.518621551355	682.0138848969716	1100.771837618393	2170.33513970095	774.1699635297182	1159.105722711993	2125.212360694658	788.092596032711	1109.872371652003	
564	3.753333333333333	2354.825839241649	1039.692904370739	897.1044876504418	2255.59897031768	116.5997526368531	957.0550165158136	2279.987116819616	133.1486780716749	911.1995197298294	2277.071525397826	160.0700620815205	955.9963327971104	2297.251157116406	1088.407770669219	852.2174231820255	2473.105673031358	71.57993509814213	962.3919514120796	2424.705286563604	74.71737703144575	863.038047588056	2200.684290628787	1073.969149824689	946.6424387530409	2364.787698170142	235.1175578845541	884.0482860266202	2327.899855040142	250.5563449547746	922.7853286345053	2379.650396048131	312.9651844423066	868.508647455265	2345.503831015481	328.463600432608	907.0558783579785	2419.22146789284	719.3123360326056	830.0383309914248	2361.242992866576	684.3215404062871	856.9210013267259	2358.846046218173	809.7179687555306	817.713447204032	2303.350781209539	776.6938773146903	843.9459267165208	2353.767577991628	1009.30374655969	1120.152421536166	1948.616899110949	98.55714458766747	1073.0479871266	1770.416380629825	173.5353476729907	1053.032415024516	1796.690501082215	167.1047832386294	1099.463535681925	1801.967756001889	201.75284252561	1057.784415386107	2318.77241311637	1064.609402126878	1141.871860966801	1944.445720792259	58.39687447392244	1023.238855239421	1911.213895629889	59.92814226609418	1129.553929381615	2201.629075875119	1071.077792970981	1043.507618368125	1920.342088763811	262.0600231186081	1122.525808180182	1888.661566689586	288.7103400034849	1091.976023798763	1965.471418249278	333.4846599151861	1136.596765539288	1928.323928854475	358.2393951912131	1106.776757538324	2144.147819079908	672.6676465138258	1149.069955442844	2095.733701332851	689.4423954086551	1099.81422380273	2167.951461710767	780.3117406695141	1158.593599871798	2123.927674594269	795.0028973202375	1108.528356998289	
565	3.76	2356.476317743483	1041.521070308628	897.4376449372538	2284.367143171727	103.2858690018227	956.8377942296606	2307.869200898767	121.3167880153578	910.9673884442184	2302.90277292939	148.0525968217396	955.6477945142955	2299.312341430935	1091.254342960356	852.3743339677594	2504.152826989417	73.26543177718648	963.8115500081989	2456.407699405669	72.71143403808161	864.042387017225	2203.029250694995	1077.965940131705	946.0573707571159	2385.63042551827	228.9749225137565	883.8959450165351	2347.7380018926	242.0729390702872	922.3938605906466	2395.464522689209	307.5246847588561	868.0518928421828	2360.294741234778	320.8434112479198	906.4394112732549	2418.108252739963	720.0026903504797	830.2665843317602	2359.939978962203	685.8966646659817	857.74584446002	2358.769295868006	811.0592038386059	817.7690977675659	2303.130494572961	778.9195270182565	844.6374032040233	2355.650186359519	1011.563308020059	1119.808598162136	1933.145830708057	103.4257100633505	1073.770999908579	1759.305646715981	189.2761656498566	1055.077688478793	1785.557452971757	181.2281711384761	1101.30262791991	1792.588990303666	215.5521699406651	1059.669950365748	2321.43723564093	1068.000619330937	1141.119372155355	1926.51042763738	63.17936191914455	1023.974242074443	1893.997691979537	65.90720853355013	1130.259706866406	2203.917183175865	1075.439261510955	1043.082069243782	1910.782460252758	270.2042972484987	1123.897697584048	1879.425459745792	297.1851037901448	1093.298112921621	1956.833953138769	341.1664078235192	1137.555349449729	1919.986468838985	366.3025734094472	1107.74423768898	2140.728949979846	678.3644125265985	1148.808363266087	2093.026616002345	695.8969163868351	1099.076900217256	2166.472179322169	785.6665168173246	1158.189840766628	2123.303785391589	800.9987776380555	1107.510527895641	
566	3.766666666666667	2357.944122136737	1042.983375389776	897.6828102715134	2312.934312203484	91.24933915560752	956.3274140183375	2335.57059245561	110.6118832980976	910.4792666238653	2328.436940890787	137.07399542446	954.9830591288522	2301.193237153137	1093.631816504224	852.5428756370319	2533.858981424878	76.40777640435226	965.4172866387368	2487.286451432979	72.06008437795087	865.13129475319	2205.094592647795	1081.533561765646	945.6391280085849	2405.881180590398	223.6039462209964	883.5905537975391	2367.120410702743	234.3371532405291	921.8525543510505	2410.771610858503	302.5144054367892	867.5012409595237	2374.669445376457	313.6289779758793	905.6971396134115	2416.251783915711	719.8942896316897	830.2059603253452	2357.980112701623	686.7926849350116	858.5550007493905	2358.060033421231	811.6810787404792	817.6905981219868	2302.356366594147	780.5315057622569	845.429434873286	2357.442505716174	1013.572401061056	1119.448940361961	1918.167844678278	109.2192040765786	1074.431080365204	1748.905621217077	205.0353220434219	1057.153985451437	1775.118438862059	195.4979867793752	1103.155804122652	1783.742470520961	229.4032134774129	1061.533237531382	2323.883743652596	1071.147199258945	1140.499075697961	1909.129309362612	68.98252720622125	1024.719198604321	1877.552895484135	72.78824924089741	1130.989556227225	2206.012986098578	1079.436079837063	1042.877684906397	1902.020203187801	278.2530833763442	1125.149608623646	1871.034340380093	305.7712760418027	1094.666764042378	1949.295068647405	348.4760910958405	1138.429037178577	1912.793874199376	374.2104207185059	1108.806525425837	2138.664445064705	683.0625005911269	1148.579455457967	2091.407101999731	701.2231346535498	1098.61202951745	2165.940441814394	790.0684687475609	1157.934138442783	2123.320071380165	805.9428390025138	1106.911624672531	
